<svg id="Layer_1" data-name="Layer 1" xmlns="http://www.w3.org/2000/svg" viewBox="0 0 702 702"><defs><style>.cls-1{fill:#e8663d;}</style></defs><path class="cls-1" d="M264.93,378.65a54.92,54.92,0,0,0,33.84-11.55l-77.63-77.63a55.34,55.34,0,0,0,43.79,89.18Z"/><path class="cls-1" d="M495.85,323.21a54.94,54.94,0,0,0-11.55-33.84L406.67,367a55.34,55.34,0,0,0,89.18-43.79Z"/><path class="cls-1" d="M535,238.71l-34.34,34.34A78.3,78.3,0,0,1,390.34,383.33L352.72,421,315.1,383.33A78.29,78.29,0,0,1,204.82,273.05L187.2,255.43l-16.72-16.72a212.44,212.44,0,0,0-30.76,110.38c0,117.65,95.35,213,213,213s213-95.35,213-213A212.53,212.53,0,0,0,535,238.71Z"/><path class="cls-1" d="M506.8,202.08a212.88,212.88,0,0,0-308.16,0,227,227,0,0,0-14.93,17.42l169,169.1,169-169.1A206.75,206.75,0,0,0,506.8,202.08ZM352.72,164c49.87,0,96.15,19.21,131,54.24l-131,131-131-131C256.57,183.17,302.86,164,352.72,164Z"/><path class="cls-1" d="M180.36,147.26a18.6,18.6,0,0,1,10.54,5.53,22,22,0,0,1,4.71,6.57,17.74,17.74,0,0,1,1.62,7.37,19.17,19.17,0,0,1-1.9,8,30.29,30.29,0,0,1-5.7,8.13l-21.22,22.2-50.84-49.77,18.26-19.11a39.76,39.76,0,0,1,7.85-6.52,19.48,19.48,0,0,1,7.43-2.82,14.11,14.11,0,0,1,6.84.73,17.89,17.89,0,0,1,6.24,4.13,19.51,19.51,0,0,1,2.89,3.56,18.07,18.07,0,0,1,1.92,4.25,14.4,14.4,0,0,1,.61,5,17,17,0,0,1-1.22,5.48l.14.13Q174.68,146.47,180.36,147.26ZM149,163.44l5.36-5.61a11,11,0,0,0,3.16-5.86,5.88,5.88,0,0,0-1.87-5.33,6,6,0,0,0-5.2-1.82q-2.91.41-6.17,3.89l-5,5.22Zm29.22,9.47a11,11,0,0,0,1.25-3.32,6.33,6.33,0,0,0-.2-3.15,7,7,0,0,0-1.82-2.84,6.58,6.58,0,0,0-5.71-1.95c-2.18.3-4.44,1.67-6.79,4.13l-6.55,6.86,10.73,10.5,6.55-6.86A16.46,16.46,0,0,0,178.23,172.91Z"/><path class="cls-1" d="M224.36,152.73a25,25,0,0,1-10.78-.42,25.56,25.56,0,0,1-9.91-5.36,38.91,38.91,0,0,1-8.41-10.29l-21-35.9,14.21-8.49,20.44,35a23.44,23.44,0,0,0,3.82,5,17,17,0,0,0,4.53,3.24,10.63,10.63,0,0,0,5.06,1,11,11,0,0,0,5.21-1.63,11.16,11.16,0,0,0,5.55-8.34q.81-5.52-3-12l-20.44-35,14.17-8.46,21,35.9a37.31,37.31,0,0,1,5.33,15.73,24.63,24.63,0,0,1-3.1,14.33,31.21,31.21,0,0,1-11.59,11.35A32.63,32.63,0,0,1,224.36,152.73Z"/><path class="cls-1" d="M248.14,62.24l15.68-5.38,22.87,67.69L271,129.93Z"/><path class="cls-1" d="M287.75,49.8,304,47.31l8.51,55.86,28.87-4.42,2.26,14.81-45.15,6.92Z"/><path class="cls-1" d="M364.22,58.29l-18.36-1.2.91-15,53,3.45-.91,15-18.36-1.2-3.41,56.33-16.3-1.06Z"/><path class="cls-1" d="M443.91,130.68A33.53,33.53,0,0,1,437,118.81a34.59,34.59,0,0,1-1.47-13.72,40.75,40.75,0,0,1,4.09-14.43,40.28,40.28,0,0,1,8.82-12.06,33.93,33.93,0,0,1,11.65-7.16,32.36,32.36,0,0,1,13.51-1.66,40.39,40.39,0,0,1,25.95,13,33.57,33.57,0,0,1,6.91,11.78A34.68,34.68,0,0,1,508,108.28a40.5,40.5,0,0,1-4.12,14.61A40,40,0,0,1,495,135a33.8,33.8,0,0,1-11.7,7.11,32.54,32.54,0,0,1-13.42,1.59,38.14,38.14,0,0,1-14-4.06A39,39,0,0,1,443.91,130.68Zm28.56-3.23a18.09,18.09,0,0,0,9.26-3.75,23.37,23.37,0,0,0,6.8-8.51,23.87,23.87,0,0,0,2.54-10.66,18.73,18.73,0,0,0-2.66-9.77A17.72,17.72,0,0,0,481,88,17.41,17.41,0,0,0,471,86.11a18.44,18.44,0,0,0-9.3,3.79A23.3,23.3,0,0,0,455,98.36a23.62,23.62,0,0,0-2.49,10.55,19.05,19.05,0,0,0,2.68,9.8,17.76,17.76,0,0,0,7.5,6.89A17.42,17.42,0,0,0,472.47,127.45Z"/><path class="cls-1" d="M586.05,151.6l-49.34,51-12.1-12,10.66-49.3-.14-.13-29.57,30.54-11.68-11.59,49.33-51L555,120.78l-11.09,50.38.13.14L574.33,140Z"/><path class="cls-1" d="M53.3,303.18A33.19,33.19,0,0,1,59.17,294a32.47,32.47,0,0,1,8.31-6.63,31.9,31.9,0,0,1,10.68-3.59,44.29,44.29,0,0,1,26.62,4.46,35.09,35.09,0,0,1,10.54,8.46,31.26,31.26,0,0,1,6.14,12.19,39.32,39.32,0,0,1-4.61,30,34.52,34.52,0,0,1-11,11.37l-8.34-13a22.94,22.94,0,0,0,9.23-15.54,17.82,17.82,0,0,0-.45-7.14,17.16,17.16,0,0,0-3.21-6.29,19.31,19.31,0,0,0-6-4.86,25.66,25.66,0,0,0-8.53-2.71,24.87,24.87,0,0,0-8.18.14,20.24,20.24,0,0,0-7.06,2.71A16.82,16.82,0,0,0,68,308.92a18.47,18.47,0,0,0-2.72,7.61,24.51,24.51,0,0,0,1.5,12.32l8,1.14,1.84-13.3,13.93,2-4,29L55,343.14A38,38,0,0,1,50.49,330a50.51,50.51,0,0,1-.25-15.67A42.76,42.76,0,0,1,53.3,303.18Z"/><path class="cls-1" d="M126.26,418.19l-70.09,10-2.45-16.83L91.9,379.05l0-.19-42,6L47.5,368.62l70.09-10L120,374.94,80.8,407.85l0,.19,43.07-6.16Z"/><path class="cls-1" d="M73.6,472.26a33.16,33.16,0,0,1,1.87-13.55,33.74,33.74,0,0,1,7.28-11.58,41.86,41.86,0,0,1,26.47-12.55,34,34,0,0,1,13.58,1.7,33,33,0,0,1,11.65,7.14,40.87,40.87,0,0,1,12.45,26.29,33.3,33.3,0,0,1-1.82,13.48,33.84,33.84,0,0,1-7.26,11.65,41.86,41.86,0,0,1-26.73,12.67,33.81,33.81,0,0,1-13.59-1.77A33,33,0,0,1,86,498.59a38.53,38.53,0,0,1-8.55-11.92A39,39,0,0,1,73.6,472.26Zm24.46,15.32a18.47,18.47,0,0,0,9.61,2.86,24.76,24.76,0,0,0,19.15-9.08,18.53,18.53,0,0,0,3.91-9.26,18.57,18.57,0,0,0-8.34-17.57,18.64,18.64,0,0,0-9.66-2.87,24.38,24.38,0,0,0-19,9,18.77,18.77,0,0,0-3.93,9.3,18.61,18.61,0,0,0,8.25,17.61Z"/><path class="cls-1" d="M115.25,543.32a37.88,37.88,0,0,1-1.58-14.81l15.53-.63a27.42,27.42,0,0,0,.59,10.37,19.12,19.12,0,0,0,3.81,7.7,11.34,11.34,0,0,0,3.59,2.93,5.23,5.23,0,0,0,3.24.59,5.59,5.59,0,0,0,2.69-1.35,5.47,5.47,0,0,0,2-4.63q-.15-2.75-2.6-8.72-1-2.5-1.7-4.55c-.47-1.36-.91-2.89-1.31-4.58a30.66,30.66,0,0,1-.79-4.64,25.18,25.18,0,0,1,0-4.5,16.24,16.24,0,0,1,1-4.46,20.35,20.35,0,0,1,2.27-4.22,21.84,21.84,0,0,1,3.69-4.08,19.22,19.22,0,0,1,10-4.64,21.17,21.17,0,0,1,11.13,1.35,25.31,25.31,0,0,1,9.71,6.89q8.73,9.82,8.94,24.53l-15.46,1q-.33-10.83-4.29-15.42a6.94,6.94,0,0,0-4.14-2.56,5.13,5.13,0,0,0-4.19,1.33,4.6,4.6,0,0,0-1.59,4.16,40.22,40.22,0,0,0,2.34,8.72,107.7,107.7,0,0,1,3.87,12.46q1.45,7.29-1.34,12.47a21.7,21.7,0,0,1-4.86,5.84,23.45,23.45,0,0,1-7.65,4.56,18.74,18.74,0,0,1-7.6,1.1,24.08,24.08,0,0,1-7.13-1.71,26.82,26.82,0,0,1-6.34-3.54,33.44,33.44,0,0,1-5.09-4.79A34.88,34.88,0,0,1,115.25,543.32Z"/><path class="cls-1" d="M199.23,531.69l12.94,10.46L168,597.63,155,587.17Z"/><path class="cls-1" d="M194.49,613.77a37.75,37.75,0,0,1-6.66-13.32l14.3-6.09a27.51,27.51,0,0,0,4.17,9.53,19.2,19.2,0,0,0,6.25,5.87,11.33,11.33,0,0,0,4.39,1.48,5.24,5.24,0,0,0,3.23-.59,5.73,5.73,0,0,0,2.05-2.22,5.5,5.5,0,0,0,.26-5.06q-1.09-2.52-5.47-7.26-1.81-2-3.19-3.66T211,588.62a32.58,32.58,0,0,1-2.36-4.07,26.94,26.94,0,0,1-1.54-4.24,16.85,16.85,0,0,1-.61-4.54,20.06,20.06,0,0,1,.66-4.76,21.69,21.69,0,0,1,2-5.12,19.2,19.2,0,0,1,7.71-7.88,21.08,21.08,0,0,1,10.87-2.67,25.14,25.14,0,0,1,11.49,3q11.59,6.14,16.92,19.85l-14.09,6.41q-4.09-10-9.4-12.94a6.85,6.85,0,0,0-4.76-.94,5.15,5.15,0,0,0-3.46,2.73,4.64,4.64,0,0,0,0,4.46,39.7,39.7,0,0,0,5.24,7.35,109.28,109.28,0,0,1,8,10.32q3.92,6.32,3.11,12.17a22,22,0,0,1-2.51,7.19,23.39,23.39,0,0,1-5.56,7,18.61,18.61,0,0,1-6.72,3.71,23.88,23.88,0,0,1-7.26.92,26.75,26.75,0,0,1-7.17-1.08,33.24,33.24,0,0,1-6.43-2.69A34.48,34.48,0,0,1,194.49,613.77Z"/><path class="cls-1" d="M289.79,581.14,316,585.28a31,31,0,0,1,10.68,3.54,19.68,19.68,0,0,1,6.92,6.32,22.31,22.31,0,0,1,3.24,8.36,30.89,30.89,0,0,1,0,9.93,24.94,24.94,0,0,1-5.19,12.51,19.55,19.55,0,0,1-10.14,6.44,33.82,33.82,0,0,1-14,.4l-9-1.42L295,654l-16-2.52Zm17.73,36.73c3.53.56,6.4.18,8.58-1.14a8.44,8.44,0,0,0,3.95-6.34,8.84,8.84,0,0,0-1.78-7.12q-2.4-3-7.71-3.84l-7.05-1.11L300.7,616.8Z"/><path class="cls-1" d="M388.4,656.38l-16.51-21.46-5.72.56,2.31,22.86-16.05,1.57L345.26,589l27-2.65a31.24,31.24,0,0,1,11.24.74,19.58,19.58,0,0,1,8.28,4.39,22.29,22.29,0,0,1,5.24,7.28,30.35,30.35,0,0,1,2.49,9.63q.8,7.89-2,13.58a20.15,20.15,0,0,1-8.72,8.93l0,.24L407.6,654.5Zm-23.71-35.52,7.53-.74q5.23-.51,8-3.32a8.44,8.44,0,0,0,2.34-7.14,8.69,8.69,0,0,0-3.57-6.45c-2.09-1.53-4.89-2.13-8.38-1.78l-7.82.76Z"/><path class="cls-1" d="M444.67,641.59a32.81,32.81,0,0,1-13.32-2.85,34.09,34.09,0,0,1-11-8.15,42.69,42.69,0,0,1-10.75-27.47,34.48,34.48,0,0,1,2.55-13.51A32.61,32.61,0,0,1,420,578.44a38.35,38.35,0,0,1,12.55-7.85,38,38,0,0,1,14.32-2.75,32.79,32.79,0,0,1,13.25,2.8,34,34,0,0,1,11.09,8.13A42.62,42.62,0,0,1,482,606.51,34.12,34.12,0,0,1,479.4,620a32.89,32.89,0,0,1-7.82,11.07,40,40,0,0,1-26.91,10.5Zm16.75-23.44a18.43,18.43,0,0,0,3.45-9.44,25.2,25.2,0,0,0-7.78-19.87,18.43,18.43,0,0,0-8.94-4.6,18.23,18.23,0,0,0-18,7.1,18.83,18.83,0,0,0-3.45,9.49,24.81,24.81,0,0,0,7.72,19.71,18.78,18.78,0,0,0,9,4.62,18.22,18.22,0,0,0,18-7Z"/><path class="cls-1" d="M487.43,559.69l-14.86,10.82-8.77-12.15,42.93-31.25,8.77,12.16-14.87,10.82,32.93,45.63-13.2,9.61Z"/><path class="cls-1" d="M573.06,557.15a32.55,32.55,0,0,1-13,4,33.75,33.75,0,0,1-13.55-1.76,42.49,42.49,0,0,1-22.64-18.83,34.39,34.39,0,0,1-4.29-13.08A33,33,0,0,1,521,513.88a38.38,38.38,0,0,1,7.16-13,38,38,0,0,1,11.16-9.4,32.71,32.71,0,0,1,12.91-4,33.6,33.6,0,0,1,13.59,1.71,42.43,42.43,0,0,1,22.87,19,34.39,34.39,0,0,1,4.23,13.11,33.18,33.18,0,0,1-1.48,13.52,40.23,40.23,0,0,1-18.4,22.33Zm3.3-28.71a18.64,18.64,0,0,0-1.55-10,25,25,0,0,0-16.37-13.62,18.29,18.29,0,0,0-10,.33,17.47,17.47,0,0,0-8.21,5.68,17.69,17.69,0,0,0-4,9.31,18.89,18.89,0,0,0,1.56,10,23.7,23.7,0,0,0,6.64,8.6A23.25,23.25,0,0,0,554,543.7a18.61,18.61,0,0,0,10-.34,18.33,18.33,0,0,0,12.32-14.92Z"/><path class="cls-1" d="M626.75,476.23a34,34,0,0,1-8,7.28,32.65,32.65,0,0,1-9.74,4.34,32.31,32.31,0,0,1-11.37.79,41.51,41.51,0,0,1-12.45-3.33,44,44,0,0,1-10.06-6,34.86,34.86,0,0,1-7.47-8.19,34.16,34.16,0,0,1-4.43-9.88,32,32,0,0,1-.85-11.34,40.89,40.89,0,0,1,3.21-12.3,35.14,35.14,0,0,1,5.11-8.47,37.42,37.42,0,0,1,18.48-12l4.87,15.26a24.89,24.89,0,0,0-8.12,4.2,18.11,18.11,0,0,0-5.7,7.35,19.73,19.73,0,0,0-1.35,4.81,18.29,18.29,0,0,0-.07,4.84,17.3,17.3,0,0,0,1.27,4.69,19,19,0,0,0,2.59,4.34,20.52,20.52,0,0,0,4,3.79,26.24,26.24,0,0,0,5.31,3,22.5,22.5,0,0,0,10.25,2,17.74,17.74,0,0,0,9.28-3.18,18.11,18.11,0,0,0,6.33-8,19.17,19.17,0,0,0,1.45-9.09,21.89,21.89,0,0,0-2.59-8.95L631,435.25a36.55,36.55,0,0,1,4.3,15,34.75,34.75,0,0,1-2.86,16.3A41.16,41.16,0,0,1,626.75,476.23Z"/><path class="cls-1" d="M649.35,398.24a32.62,32.62,0,0,1-8.73,10.46,33.49,33.49,0,0,1-12.3,5.91,39.65,39.65,0,0,1-14.86.88,40.11,40.11,0,0,1-14.25-4.39,34.28,34.28,0,0,1-10.64-8.68,33,33,0,0,1-6.14-12.26,40.73,40.73,0,0,1,3.27-28.86,32.77,32.77,0,0,1,8.65-10.42,33.58,33.58,0,0,1,12.31-6,42,42,0,0,1,29.4,3.55,34,34,0,0,1,10.61,8.74,33.27,33.27,0,0,1,6.05,12.2,40.66,40.66,0,0,1-3.37,28.85Zm-12.72-26A18.66,18.66,0,0,0,630,364.7a24.84,24.84,0,0,0-21.06-2.54,18.28,18.28,0,0,0-8.21,5.75,17.62,17.62,0,0,0-3.81,9.26,17.82,17.82,0,0,0,1.64,10,18.84,18.84,0,0,0,6.7,7.57,24.47,24.47,0,0,0,20.89,2.53,18.63,18.63,0,0,0,8.24-5.77,18.54,18.54,0,0,0,2.27-19.29Z"/><path class="cls-1" d="M584.42,334,582,317.58l55.4-8-4.27-29.09,14.69-2.12,6.67,45.49Z"/><circle class="cls-1" cx="109.04" cy="232.23" r="15"/><circle class="cls-1" cx="590.4" cy="241.23" r="15"/></svg>