<svg height="428" viewBox="0 0 428 428" width="428" xmlns="http://www.w3.org/2000/svg"><g fill="#e8663d"><path d="m125.8 243.7c12.8 0 24.6-4.3 34-11.6l-78-78c-7.3 9.4-11.6 21.2-11.6 34 0 30.6 24.9 55.6 55.6 55.6z"/><path d="m357.8 188c0-12.8-4.3-24.6-11.6-34l-78 78c9.4 7.3 21.2 11.600596 34 11.600596 30.7.099404 55.6-24.900596 55.6-55.600596z"/><path d="m397.1 103.1-34.5 34.5c11.4 13.7 18.3 31.2 18.3 50.4 0 43.4-35.3 78.7-78.7 78.7-19.1 0-36.7-6.9-50.4-18.3l-37.8 37.8-37.8-37.8c-13.7 11.4-31.2 18.3-50.4 18.3-43.4 0-78.7-35.3-78.7-78.7 0-19.1 6.9-36.7 18.3-50.4l-17.7-17.7-16.8-16.8c-19.6 32.4-30.9 70.3-30.9 110.9 0 118.2 95.8 214 214 214s214-95.8 214-214c0-40.6-11.3-78.5-30.9-110.9z"/><path d="m368.8 66.3c-38.9-40.8-93.9-66.3-154.8-66.3s-115.9 25.5-154.8 66.3c-5.3 5.6-10.3 11.4-15 17.5l169.8 169.9 169.8-169.9c-4.6-6.1-9.7-11.9-15-17.5zm-154.8-38.3c50.1 0 96.6 19.3 131.6 54.5l-131.6 131.6-131.6-131.6c35-35.2 81.5-54.5 131.6-54.5z"/></g></svg>