<svg width="73" height="16" xmlns="http://www.w3.org/2000/svg"><path d="M43.948 0c1.11 0 2.08.19 2.91.57.831.38 1.478.908 1.94 1.585.463.677.702 1.461.716 2.352h-3.031l-.027-.191a1.812 1.812 0 00-.726-1.182c-.443-.326-1.044-.49-1.804-.49-.516 0-.952.072-1.308.216-.355.144-.627.342-.814.595-.188.254-.282.54-.282.862-.01.268.048.502.172.702.124.2.296.371.515.515.22.143.472.268.76.372.287.105.594.194.92.267l1.344.321.386.094c.505.132.975.296 1.412.49a5.459 5.459 0 011.417.9c.4.355.71.774.931 1.256.222.482.335 1.035.34 1.658-.005.916-.238 1.708-.698 2.378-.46.67-1.122 1.188-1.987 1.556-.864.368-1.905.551-3.123.551-1.208 0-2.258-.185-3.152-.555-.894-.37-1.59-.919-2.09-1.647-.498-.728-.76-1.63-.785-2.707h3.061l.022.21c.056.41.194.757.413 1.043a2.33 2.33 0 001.03.753c.431.168.92.252 1.465.252.535 0 1.002-.078 1.399-.234.397-.156.705-.373.924-.65.219-.278.328-.597.328-.957 0-.336-.098-.619-.295-.848-.198-.229-.485-.423-.862-.584a8.905 8.905 0 00-1.385-.438l-1.629-.41-.337-.087c-1.103-.308-1.987-.758-2.65-1.352-.731-.652-1.094-1.531-1.09-2.637-.004-.906.238-1.697.728-2.374S40.169.95 41.026.57c.857-.38 1.83-.57 2.922-.57zM4.4.205l4.12 10.051h.175L12.816.205h3.902v14.96h-3.069V5.429h-.124l-3.872 9.665H7.564L3.692 5.39h-.124v9.775H.5V.205h3.901zm28.112 0v2.607h-6.918v3.565h6.4v2.608h-6.4v3.573h6.947v2.608h-10.11V.205h10.081zm36.955-.02v2.47h-2.792l2.286 6.632h3.363v2.47h-2.512l1.176 3.409h-3.39l-1.107-3.41h-5.404l-1.108 3.41h-3.39l1.176-3.41-2.584.001v-2.47h3.437l2.29-6.632h-2.87V.185h11.429zm-5.616 3.438h-.117l-1.842 5.663h3.796l-1.837-5.663z" fill="#FFF" fill-rule="nonzero"/></svg>