<svg height="428" viewBox="0 0 428 428" width="428" xmlns="http://www.w3.org/2000/svg"><path d="m214 0c118.188936 0 214 95.8110635 214 214 0 118.188936-95.811064 214-214 214-118.1889365 0-214-95.811064-214-214 0-118.1889365 95.8110635-214 214-214zm-13 119h-32.75v75.75h-.75c-9-10.5-21.25-15.75-36.75-15.75-16.5 0-30.208333 5.958333-41.125 17.875-10.9166667 11.916667-16.375 27.041667-16.375 45.375 0 18.666667 5.5 33.791667 16.5 45.375s25 17.375 42 17.375c15.951111 0 28.332681-5.435437 37.144711-16.306311l.355289-.443689h.5v14.75h31.25zm153.75 6.5h-117.75v177.5h34.75v-67.25h69.25v-31.5h-69.25v-47.25h83zm-217 82.75c9.333333 0 17.041667 3.25 23.125 9.75s9.125 14.666667 9.125 24.5-3.083333 17.833333-9.25 24-13.833333 9.25-23 9.25-16.666667-3.083333-22.5-9.25-8.75-14.166667-8.75-24c0-10.333333 2.958333-18.625 8.875-24.875s13.375-9.375 22.375-9.375z" fill="#e8663d" fill-rule="evenodd"/></svg>