<?xml version="1.0" encoding="UTF-8"?>
<svg width="10px" height="10px" viewBox="0 0 10 10" version="1.1" xmlns="http://www.w3.org/2000/svg" xmlns:xlink="http://www.w3.org/1999/xlink">
    <!-- Generator: Sketch 63 (92445) - https://sketch.com -->
    <title>lowBalance</title>
    <desc>Created with Sketch.</desc>
    <g id="UI" stroke="none" stroke-width="1" fill="none" fill-rule="evenodd">
        <g id="GnosisProtocol---v2.3---1_Order" transform="translate(-1126.000000, -445.000000)" fill-rule="nonzero">
            <g id="#open-orders-content" transform="translate(736.000000, 304.000000)">
                <g id="lowBalance" transform="translate(390.000000, 141.500000)">
                    <path d="M9.80941514,7.75243356 L5.8669521,0.623222797 C5.64448865,0.22128201 5.33642661,7.37188088e-14 4.99996971,7.37188088e-14 C4.6635128,7.37188088e-14 4.35545076,0.22128201 4.13298732,0.624010421 L0.190120365,7.75241336 C0.0642923499,7.98000646 0.000393812101,8.20168228 0,8.41152355 L0,8.4127069 C0.000394417966,8.95388551 0.415350594,9.30375222 1.05753696,9.30375222 L8.94246304,9.30414664 C9.5842253,9.30414664 9.99919218,8.95427993 10,8.41310132 C9.99960558,8.20286625 9.93570563,7.9803927 9.80948582,7.75240579 L9.80941514,7.75243356 Z" id="Shape" fill="#FBAA00"></path>
                    <path d="M5,8 C4.72384991,8 4.5,7.77615009 4.5,7.5 C4.5,7.22384991 4.72384991,7 5,7 C5.27615009,7 5.5,7.22384991 5.5,7.5 C5.5,7.77615009 5.27615009,8 5,8 Z" id="Path" fill="#2F3E4E"></path>
                    <path d="M5.5,5.46870263 C5.5,5.76213827 5.27615009,6 5,6 C4.72384991,6 4.5,5.76213827 4.5,5.46870263 L4.5,2.53129737 C4.5,2.23786173 4.72384991,2 5,2 C5.27615009,2 5.5,2.23786173 5.5,2.53129737 L5.5,5.46870263 Z" id="Path" fill="#2F3E4E"></path>
                </g>
            </g>
        </g>
    </g>
</svg>