<?xml version="1.0" encoding="UTF-8"?>
<svg width="24px" height="16px" viewBox="0 0 24 16" version="1.1" xmlns="http://www.w3.org/2000/svg" xmlns:xlink="http://www.w3.org/1999/xlink">
    <!-- Generator: Sketch 62 (91390) - https://sketch.com -->
    <title>np_arrows-up-down_2022877_000000</title>
    <desc>Created with Sketch.</desc>
    <g id="UI" stroke="none" stroke-width="1" fill="none" fill-rule="evenodd">
        <g id="GnosisProtocol---v2.3---1_Order" transform="translate(-496.000000, -313.000000)" fill="#476481" fill-rule="nonzero">
            <g id="np_arrows-up-down_2022877_000000" transform="translate(496.000000, 313.000000)">
                <path d="M23.1816178,5.21394882 L18.436791,0.254715271 C18.2817206,0.0909677989 18.0715777,0 17.8527495,0 C17.6324632,0 17.4223055,0.0909716803 17.2672611,0.254715271 L12.5224343,5.21394882 C12.2253381,5.55660054 12.2383828,6.08120337 12.5499701,6.40867503 C12.8630085,6.73464847 13.3644449,6.74677777 13.6919712,6.43748221 L17.0310471,2.94424421 L17.0310471,15.0766479 C17.0151052,15.3162025 17.094816,15.5512237 17.2513333,15.7255751 C17.4078544,15.901448 17.6266825,16 17.855669,16 C18.0846516,16 18.3034761,15.901448 18.4600046,15.7255751 C18.6165219,15.551216 18.6962331,15.3162064 18.6817415,15.0766479 L18.6817415,2.94734931 L22.0208174,6.44058731 C22.349798,6.73472183 22.8410799,6.71349459 23.1454181,6.39207012 C23.44976,6.07064564 23.4657023,5.55668166 23.1816493,5.21399501 L23.1816178,5.21394882 Z" id="Path"></path>
                <path d="M9.73650775,9.58234047 L6.38232106,13.0755886 L6.38232106,0.923354741 C6.39833506,0.683799431 6.31826355,0.448777581 6.16103791,0.274425688 C6.00380854,0.0985522913 5.78399006,0 5.55396739,0 C5.32394844,0 5.10413368,0.0985522913 4.94689686,0.274425688 C4.78967123,0.448785344 4.70959934,0.68379555 4.72415651,0.923354741 L4.72415651,13.0526884 L1.36996982,9.55944028 C1.03950044,9.26530491 0.545995224,9.28653222 0.240279742,9.60795762 C-0.0654394676,9.92938302 -0.0814538457,10.4433485 0.20388458,10.7860361 L4.97018387,15.745284 C5.12595602,15.9090319 5.3370499,16 5.55686839,16 C5.77815154,16 5.98926032,15.9090281 6.14500639,15.745284 L10.9113057,10.7860361 C11.1602497,10.4388344 11.1253102,9.95367274 10.8283231,9.65041999 C10.5327932,9.34566903 10.0654692,9.31686137 9.73646079,9.58219297 L9.73650775,9.58234047 Z" id="Path"></path>
            </g>
        </g>
    </g>
</svg>